<?xml version="1.0" encoding="utf-8"?>
<!-- Generator: Adobe Illustrator 24.3.0, SVG Export Plug-In . SVG Version: 6.00 Build 0)  -->
<svg version="1.1" id="Layer_1" xmlns="http://www.w3.org/2000/svg" xmlns:xlink="http://www.w3.org/1999/xlink" x="0px" y="0px"
	 viewBox="0 0 375 720" style="enable-background:new 0 0 375 720;" xml:space="preserve">
<style type="text/css">
	.st0{fill:#FFFFFF;}
	.st1{opacity:0.501;fill:#F0F0F0;enable-background:new    ;}
	.st2{fill:#F0F0F0;}
	.st3{fill:#E3E3E3;}
</style>
<g>
	<g id="Screen">
		<rect class="st0" width="375" height="720"/>
		<path id="mountain-3" class="st1" d="M0,720V392.3c141.4,3.4,271.1,33.1,375,81V720H0z"/>
		<path id="mountain-2_1_" class="st2" d="M0,718.5L0,718.5c22.5-136.4,170-251.6,375-306.3V720"/>
		<path id="mountain-1" class="st3" d="M0,720V560.2c140.9,2.4,270.5,30.9,375,77.5V720H0z"/>
		<path id="cactus-front" class="st3" d="M54,578v-58H36c-5.5,0-10-4.5-10-10v-47c0-5.5,4.5-10,10-10s10,4.5,10,10v37h8v-74
			c0-5.5,4.5-10,10-10s10,4.5,10,10v94h9v-44c0-5.5,4.5-10,10-10s10,4.5,10,10v54c0,5.5-4.5,10-10,10H74v38c0,5.5-4.5,10-10,10
			S54,583.5,54,578z"/>
		<path id="cactus-back" class="st2" d="M316,428v-17h-7c-0.1,0-0.2,0-0.3,0c-0.1,0-0.2,0-0.2,0c-1.9,0-3.5-1.6-3.5-3.5v-8
			c0-1.9,1.6-3.5,3.5-3.5c1.9,0,3.5,1.6,3.5,3.5v3.5h4v-21c0-2.2,1.8-4,4-4s4,1.8,4,4v30h4v-12c0-1.7,1.3-3,3-3s3,1.3,3,3v16
			c0,1.7-1.3,3-3,3c-0.1,0-0.2,0-0.2,0c-0.1,0-0.2,0-0.3,0H324v9c0,2.2-1.8,4-4,4C317.8,432,316,430.2,316,428
			C316,428,316,428,316,428z"/>
	</g>
</g>
</svg>
