<?xml version="1.0" encoding="utf-8"?>
<!-- Generator: Adobe Illustrator 24.3.0, SVG Export Plug-In . SVG Version: 6.00 Build 0)  -->
<svg version="1.1" id="Layer_1" xmlns="http://www.w3.org/2000/svg" xmlns:xlink="http://www.w3.org/1999/xlink" x="0px" y="0px"
	 viewBox="0 0 1000 493.8" style="enable-background:new 0 0 1000 493.8;" xml:space="preserve">
<style type="text/css">
	.st0{enable-background:new    ;}
	.st1{fill:#F5F6F8;}
	.st2{opacity:0.31;}
	.st3{opacity:0.2;}
	.st4{fill:#FFFFFF;}
</style>
<g transform="translate(-192.646 -401)">
	<g class="st0">
		<path class="st1" d="M293.1,603v96.2h-15.4v-59.7l-25.5,59.7h-11.5L215,640.2v59.1h-15.4V603h13.8l33.1,75.3l32.8-75.3H293.1z"/>
		<path class="st1" d="M325.6,696c-5.3-2.9-9.3-7-12.2-12.4c-2.8-5.4-4.3-11.6-4.3-18.9c0-7.2,1.4-13.5,4.3-18.9
			c2.8-5.4,6.9-9.5,12.2-12.4c5.3-2.9,11.4-4.3,18.3-4.3c6.8,0,12.9,1.4,18.1,4.3c5.2,2.9,9.3,7,12.1,12.4
			c2.8,5.4,4.3,11.6,4.3,18.9c0,7.2-1.4,13.5-4.3,18.9c-2.8,5.4-6.9,9.5-12.1,12.4c-5.2,2.9-11.3,4.3-18.1,4.3
			C337,700.3,330.9,698.9,325.6,696z M357,681.5c3-3.7,4.5-9.3,4.5-16.7c0-7.3-1.5-12.9-4.6-16.7c-3.1-3.8-7.4-5.7-13-5.7
			c-5.7,0-10,1.9-13.1,5.7c-3.1,3.8-4.6,9.4-4.6,16.7c0,7.4,1.5,13,4.5,16.7c3,3.7,7.4,5.6,13,5.6
			C349.6,687.1,353.9,685.2,357,681.5z"/>
		<path class="st1" d="M456.5,657.4v41.9h-16.9v-41.1c0-5.4-1-9.3-3.1-11.8c-2.1-2.5-5.3-3.7-9.6-3.7c-5.1,0-9.3,1.6-12.4,4.9
			c-3.2,3.3-4.7,7.6-4.7,13v38.6H393v-48.9c0-7.2-0.4-13.6-1.1-19.3h15.8l1.2,11.2c2.3-4.1,5.5-7.3,9.5-9.6c4-2.3,8.5-3.4,13.6-3.4
			C448.3,629.3,456.5,638.6,456.5,657.4z"/>
		<path class="st1" d="M534.2,666h-47c0.4,7.3,2.2,12.7,5.5,16.1c3.3,3.5,8.2,5.2,14.7,5.2c7.5,0,14.4-2.4,20.8-7.3l4.9,11.6
			c-3.2,2.6-7.2,4.7-12,6.3c-4.7,1.6-9.5,2.4-14.4,2.4c-11.2,0-20-3.2-26.4-9.5c-6.4-6.3-9.6-15-9.6-25.9c0-6.9,1.4-13.1,4.2-18.5
			c2.8-5.4,6.7-9.6,11.8-12.6c5-3,10.8-4.5,17.2-4.5c9.4,0,16.8,3,22.2,9.1c5.4,6.1,8.2,14.4,8.2,25.1V666z M493.2,645.4
			c-2.8,2.7-4.7,6.5-5.5,11.6h31.8c-0.5-5.1-2.1-9-4.7-11.6c-2.6-2.6-6.1-3.9-10.6-3.9C499.7,641.4,496,642.8,493.2,645.4z"/>
		<path class="st1" d="M611.9,631l-31.8,72.8c-3.6,8.5-8.2,14.6-13.8,18.5c-5.6,3.9-12.5,6.4-20.7,7.7l-3.8-13
			c6.4-1.4,11.2-3.3,14.4-5.5c3.2-2.2,5.8-5.5,7.8-9.8l2.2-5L537.8,631h17.7l19.6,49.1l20-49.1H611.9z"/>
		<path class="st1" d="M715.7,603v96.2h-15.4v-59.7l-25.5,59.7h-11.5l-25.7-59.1v59.1h-15.4V603H636l33.1,75.3l32.8-75.3H715.7z"/>
		<path class="st1" d="M800.8,631v68.2h-16.6v-10.9c-2.1,3.8-5,6.7-8.9,8.9c-3.9,2.1-8.3,3.2-13.2,3.2c-5.9,0-11.2-1.4-15.8-4.3
			c-4.6-2.9-8.2-7-10.7-12.3c-2.5-5.3-3.8-11.5-3.8-18.5c0-7,1.3-13.3,3.9-18.7c2.6-5.4,6.1-9.7,10.7-12.7c4.6-3,9.8-4.5,15.7-4.5
			c5,0,9.4,1.1,13.2,3.2c3.9,2.1,6.8,5.1,8.9,8.9V631H800.8z M779.6,681.3c3.1-3.9,4.6-9.3,4.6-16.4c0-7.2-1.5-12.7-4.6-16.6
			c-3.1-3.9-7.4-5.8-13.1-5.8c-5.6,0-9.9,2-13,6c-3.1,4-4.7,9.6-4.7,16.7c0,7,1.6,12.4,4.7,16.2s7.5,5.7,13.2,5.7
			C772.2,687.1,776.5,685.2,779.6,681.3z"/>
		<path class="st1" d="M882.7,657.4v41.9h-16.9v-41.1c0-5.4-1-9.3-3.1-11.8c-2.1-2.5-5.3-3.7-9.6-3.7c-5.1,0-9.3,1.6-12.4,4.9
			c-3.2,3.3-4.7,7.6-4.7,13v38.6h-16.8v-48.9c0-7.2-0.4-13.6-1.1-19.3h15.8l1.2,11.2c2.3-4.1,5.5-7.3,9.5-9.6
			c4-2.3,8.5-3.4,13.6-3.4C874.6,629.3,882.7,638.6,882.7,657.4z"/>
		<path class="st1" d="M966,631v68.2h-16.6v-10.9c-2.1,3.8-5,6.7-8.9,8.9c-3.9,2.1-8.3,3.2-13.2,3.2c-5.9,0-11.2-1.4-15.8-4.3
			c-4.6-2.9-8.2-7-10.7-12.3c-2.5-5.3-3.8-11.5-3.8-18.5c0-7,1.3-13.3,3.9-18.7c2.6-5.4,6.1-9.7,10.7-12.7c4.6-3,9.8-4.5,15.7-4.5
			c5,0,9.4,1.1,13.2,3.2c3.9,2.1,6.8,5.1,8.9,8.9V631H966z M944.7,681.3c3.1-3.9,4.6-9.3,4.6-16.4c0-7.2-1.5-12.7-4.6-16.6
			c-3.1-3.9-7.4-5.8-13.1-5.8c-5.6,0-9.9,2-13,6c-3.1,4-4.7,9.6-4.7,16.7c0,7,1.6,12.4,4.7,16.2s7.5,5.7,13.2,5.7
			C937.3,687.1,941.7,685.2,944.7,681.3z"/>
		<path class="st1" d="M1050.3,631v66.1c0,10.6-2.9,18.7-8.8,24.2c-5.9,5.5-14.5,8.2-25.8,8.2c-10.5,0-19.8-2.2-27.8-6.6l2.7-12.8
			c8.3,4.3,16.5,6.5,24.7,6.5c12.2,0,18.2-6,18.2-18.1v-13.5c-2.1,3.7-5.1,6.7-9.1,9c-4,2.3-8.4,3.4-13.4,3.4
			c-5.9,0-11.2-1.4-15.9-4.3c-4.6-2.8-8.2-6.8-10.8-12c-2.6-5.2-3.9-11.1-3.9-17.8c0-6.7,1.3-12.6,3.9-17.8c2.6-5.2,6.2-9.2,10.8-12
			c4.6-2.8,9.9-4.3,15.9-4.3c5,0,9.5,1.1,13.4,3.2c3.9,2.1,6.9,5.1,9,8.9V631H1050.3z M1028.7,678.6c3.2-3.7,4.8-8.8,4.8-15.3
			c0-6.5-1.6-11.6-4.7-15.3c-3.2-3.7-7.6-5.5-13.2-5.5c-5.6,0-10,1.8-13.2,5.5c-3.2,3.7-4.8,8.8-4.8,15.3c0,6.5,1.6,11.6,4.8,15.3
			c3.2,3.7,7.6,5.5,13.2,5.5C1021.1,684.1,1025.5,682.3,1028.7,678.6z"/>
		<path class="st1" d="M1128.2,666h-47c0.4,7.3,2.2,12.7,5.5,16.1c3.3,3.5,8.2,5.2,14.7,5.2c7.5,0,14.4-2.4,20.8-7.3l4.9,11.6
			c-3.2,2.6-7.2,4.7-12,6.3s-9.5,2.4-14.4,2.4c-11.2,0-20-3.2-26.4-9.5c-6.4-6.3-9.6-15-9.6-25.9c0-6.9,1.4-13.1,4.2-18.5
			c2.8-5.4,6.7-9.6,11.8-12.6c5-3,10.8-4.5,17.2-4.5c9.4,0,16.8,3,22.2,9.1c5.5,6.1,8.2,14.4,8.2,25.1V666z M1087.2,645.4
			c-2.8,2.7-4.7,6.5-5.5,11.6h31.8c-0.5-5.1-2.1-9-4.7-11.6c-2.6-2.6-6.1-3.9-10.6-3.9C1093.7,641.4,1090.1,642.8,1087.2,645.4z"/>
		<path class="st1" d="M1186.1,630.5l-0.1,15.4c-2.9-1.2-5.9-1.8-8.9-1.8c-5.8,0-10.2,1.7-13.2,5c-3,3.3-4.5,7.7-4.5,13.2v36.9
			h-16.8v-48.9c0-7.2-0.4-13.6-1.1-19.3h15.8l1.4,12c1.7-4.4,4.4-7.8,8.1-10.1c3.7-2.3,7.9-3.5,12.6-3.5
			C1181.9,629.4,1184.2,629.8,1186.1,630.5z"/>
	</g>
	<g transform="translate(363 371)" class="st2">
		<g transform="translate(5192 -300)" class="st3">
			<g>
				<path class="st4" d="M-5091.2,347.2h21.6c6,0,10.8,4.8,10.8,10.8v21.6c0,6-4.8,10.8-10.8,10.8h-21.6c-6,0-10.8-4.8-10.8-10.8
					V358C-5102,352-5097.2,347.2-5091.2,347.2z"/>
			</g>
			<g>
				<path class="st4" d="M-5029,347.2h21.6c6,0,10.8,4.8,10.8,10.8v21.6c0,6-4.8,10.8-10.8,10.8h-21.6c-6,0-10.8-4.8-10.8-10.8V358
					C-5039.8,352-5035,347.2-5029,347.2z"/>
			</g>
			<g>
				<path class="st4" d="M-4969.6,347.2h21.6c6,0,10.8,4.8,10.8,10.8v21.6c0,6-4.8,10.8-10.8,10.8h-21.6c-6,0-10.8-4.8-10.8-10.8
					V358C-4980.4,352-4975.5,347.2-4969.6,347.2z"/>
			</g>
			<g>
				<path class="st4" d="M-4907.4,347.2h21.6c6,0,10.8,4.8,10.8,10.8v21.6c0,6-4.8,10.8-10.8,10.8h-21.6c-6,0-10.8-4.8-10.8-10.8
					V358C-4918.2,352-4913.4,347.2-4907.4,347.2z"/>
			</g>
			<g>
				<path class="st4" d="M-5091.2,406.6h21.6c6,0,10.8,4.8,10.8,10.8v21.6c0,6-4.8,10.8-10.8,10.8h-21.6c-6,0-10.8-4.8-10.8-10.8
					v-21.6C-5102,411.5-5097.2,406.6-5091.2,406.6z"/>
			</g>
			<g>
				<path class="st4" d="M-5029,406.6h21.6c6,0,10.8,4.8,10.8,10.8v21.6c0,6-4.8,10.8-10.8,10.8h-21.6c-6,0-10.8-4.8-10.8-10.8
					v-21.6C-5039.8,411.5-5035,406.6-5029,406.6z"/>
			</g>
			<g>
				<path class="st4" d="M-4969.6,406.6h21.6c6,0,10.8,4.8,10.8,10.8v21.6c0,6-4.8,10.8-10.8,10.8h-21.6c-6,0-10.8-4.8-10.8-10.8
					v-21.6C-4980.4,411.5-4975.5,406.6-4969.6,406.6z"/>
			</g>
			<g>
				<path class="st4" d="M-4907.4,406.6h21.6c6,0,10.8,4.8,10.8,10.8v21.6c0,6-4.8,10.8-10.8,10.8h-21.6c-6,0-10.8-4.8-10.8-10.8
					v-21.6C-4918.2,411.5-4913.4,406.6-4907.4,406.6z"/>
			</g>
			<g>
				<path class="st4" d="M-5091.2,466.1h21.6c6,0,10.8,4.8,10.8,10.8v21.6c0,6-4.8,10.8-10.8,10.8h-21.6c-6,0-10.8-4.8-10.8-10.8
					v-21.6C-5102,470.9-5097.2,466.1-5091.2,466.1z"/>
			</g>
			<g>
				<path class="st4" d="M-5029,466.1h21.6c6,0,10.8,4.8,10.8,10.8v21.6c0,6-4.8,10.8-10.8,10.8h-21.6c-6,0-10.8-4.8-10.8-10.8
					v-21.6C-5039.8,470.9-5035,466.1-5029,466.1z"/>
			</g>
			<g>
				<path class="st4" d="M-4969.6,466.1h21.6c6,0,10.8,4.8,10.8,10.8v21.6c0,6-4.8,10.8-10.8,10.8h-21.6c-6,0-10.8-4.8-10.8-10.8
					v-21.6C-4980.4,470.9-4975.5,466.1-4969.6,466.1z"/>
			</g>
			<g>
				<path class="st4" d="M-4907.4,466.1h21.6c6,0,10.8,4.8,10.8,10.8v21.6c0,6-4.8,10.8-10.8,10.8h-21.6c-6,0-10.8-4.8-10.8-10.8
					v-21.6C-4918.2,470.9-4913.4,466.1-4907.4,466.1z"/>
			</g>
			<g>
				<path class="st4" d="M-5091.2,525.6h21.6c6,0,10.8,4.8,10.8,10.8V558c0,6-4.8,10.8-10.8,10.8h-21.6c-6,0-10.8-4.8-10.8-10.8
					v-21.6C-5102,530.4-5097.2,525.6-5091.2,525.6z"/>
			</g>
			<g>
				<path class="st4" d="M-5029,525.6h21.6c6,0,10.8,4.8,10.8,10.8V558c0,6-4.8,10.8-10.8,10.8h-21.6c-6,0-10.8-4.8-10.8-10.8v-21.6
					C-5039.8,530.4-5035,525.6-5029,525.6z"/>
			</g>
			<g>
				<path class="st4" d="M-4969.6,525.6h21.6c6,0,10.8,4.8,10.8,10.8V558c0,6-4.8,10.8-10.8,10.8h-21.6c-6,0-10.8-4.8-10.8-10.8
					v-21.6C-4980.4,530.4-4975.5,525.6-4969.6,525.6z"/>
			</g>
			<g>
				<path class="st4" d="M-4907.4,525.6h21.6c6,0,10.8,4.8,10.8,10.8V558c0,6-4.8,10.8-10.8,10.8h-21.6c-6,0-10.8-4.8-10.8-10.8
					v-21.6C-4918.2,530.4-4913.4,525.6-4907.4,525.6z"/>
			</g>
		</g>
		<g transform="translate(5372 -300)" class="st3">
			<g>
				<path class="st4" d="M-5028,347.2h21.6c6,0,10.8,4.8,10.8,10.8v21.6c0,6-4.8,10.8-10.8,10.8h-21.6c-6,0-10.8-4.8-10.8-10.8V358
					C-5038.8,352-5033.9,347.2-5028,347.2z"/>
			</g>
			<g>
				<path class="st4" d="M-4965.8,347.2h21.6c6,0,10.8,4.8,10.8,10.8v21.6c0,6-4.8,10.8-10.8,10.8h-21.6c-6,0-10.8-4.8-10.8-10.8
					V358C-4976.6,352-4971.8,347.2-4965.8,347.2z"/>
			</g>
			<g>
				<path class="st4" d="M-4906.3,347.2h21.6c6,0,10.8,4.8,10.8,10.8v21.6c0,6-4.8,10.8-10.8,10.8h-21.6c-6,0-10.8-4.8-10.8-10.8
					V358C-4917.1,352-4912.3,347.2-4906.3,347.2z"/>
			</g>
			<g>
				<path class="st4" d="M-4844.2,347.2h21.6c6,0,10.8,4.8,10.8,10.8v21.6c0,6-4.8,10.8-10.8,10.8h-21.6c-6,0-10.8-4.8-10.8-10.8
					V358C-4855,352-4850.1,347.2-4844.2,347.2z"/>
			</g>
			<g>
				<path class="st4" d="M-5028,406.6h21.6c6,0,10.8,4.8,10.8,10.8v21.6c0,6-4.8,10.8-10.8,10.8h-21.6c-6,0-10.8-4.8-10.8-10.8
					v-21.6C-5038.8,411.5-5033.9,406.6-5028,406.6z"/>
			</g>
			<g>
				<path class="st4" d="M-4965.8,406.6h21.6c6,0,10.8,4.8,10.8,10.8v21.6c0,6-4.8,10.8-10.8,10.8h-21.6c-6,0-10.8-4.8-10.8-10.8
					v-21.6C-4976.6,411.5-4971.8,406.6-4965.8,406.6z"/>
			</g>
			<g>
				<path class="st4" d="M-4906.3,406.6h21.6c6,0,10.8,4.8,10.8,10.8v21.6c0,6-4.8,10.8-10.8,10.8h-21.6c-6,0-10.8-4.8-10.8-10.8
					v-21.6C-4917.1,411.5-4912.3,406.6-4906.3,406.6z"/>
			</g>
			<g>
				<path class="st4" d="M-4844.2,406.6h21.6c6,0,10.8,4.8,10.8,10.8v21.6c0,6-4.8,10.8-10.8,10.8h-21.6c-6,0-10.8-4.8-10.8-10.8
					v-21.6C-4855,411.5-4850.1,406.6-4844.2,406.6z"/>
			</g>
			<g>
				<path class="st4" d="M-5028,466.1h21.6c6,0,10.8,4.8,10.8,10.8v21.6c0,6-4.8,10.8-10.8,10.8h-21.6c-6,0-10.8-4.8-10.8-10.8
					v-21.6C-5038.8,470.9-5033.9,466.1-5028,466.1z"/>
			</g>
			<g>
				<path class="st4" d="M-4965.8,466.1h21.6c6,0,10.8,4.8,10.8,10.8v21.6c0,6-4.8,10.8-10.8,10.8h-21.6c-6,0-10.8-4.8-10.8-10.8
					v-21.6C-4976.6,470.9-4971.8,466.1-4965.8,466.1z"/>
			</g>
			<g>
				<path class="st4" d="M-4906.3,466.1h21.6c6,0,10.8,4.8,10.8,10.8v21.6c0,6-4.8,10.8-10.8,10.8h-21.6c-6,0-10.8-4.8-10.8-10.8
					v-21.6C-4917.1,470.9-4912.3,466.1-4906.3,466.1z"/>
			</g>
			<g>
				<path class="st4" d="M-4844.2,466.1h21.6c6,0,10.8,4.8,10.8,10.8v21.6c0,6-4.8,10.8-10.8,10.8h-21.6c-6,0-10.8-4.8-10.8-10.8
					v-21.6C-4855,470.9-4850.1,466.1-4844.2,466.1z"/>
			</g>
			<g>
				<path class="st4" d="M-5028,525.6h21.6c6,0,10.8,4.8,10.8,10.8V558c0,6-4.8,10.8-10.8,10.8h-21.6c-6,0-10.8-4.8-10.8-10.8v-21.6
					C-5038.8,530.4-5033.9,525.6-5028,525.6z"/>
			</g>
			<g>
				<path class="st4" d="M-4965.8,525.6h21.6c6,0,10.8,4.8,10.8,10.8V558c0,6-4.8,10.8-10.8,10.8h-21.6c-6,0-10.8-4.8-10.8-10.8
					v-21.6C-4976.6,530.4-4971.8,525.6-4965.8,525.6z"/>
			</g>
			<g>
				<path class="st4" d="M-4906.3,525.6h21.6c6,0,10.8,4.8,10.8,10.8V558c0,6-4.8,10.8-10.8,10.8h-21.6c-6,0-10.8-4.8-10.8-10.8
					v-21.6C-4917.1,530.4-4912.3,525.6-4906.3,525.6z"/>
			</g>
			<g>
				<path class="st4" d="M-4844.2,525.6h21.6c6,0,10.8,4.8,10.8,10.8V558c0,6-4.8,10.8-10.8,10.8h-21.6c-6,0-10.8-4.8-10.8-10.8
					v-21.6C-4855,530.4-4850.1,525.6-4844.2,525.6z"/>
			</g>
		</g>
		<g transform="translate(5192 -124)" class="st3">
			<g>
				<path class="st4" d="M-5091.2,409h21.6c6,0,10.8,4.8,10.8,10.8v21.6c0,6-4.8,10.8-10.8,10.8h-21.6c-6,0-10.8-4.8-10.8-10.8
					v-21.6C-5102,413.9-5097.2,409-5091.2,409z"/>
			</g>
			<g>
				<path class="st4" d="M-5029,409h21.6c6,0,10.8,4.8,10.8,10.8v21.6c0,6-4.8,10.8-10.8,10.8h-21.6c-6,0-10.8-4.8-10.8-10.8v-21.6
					C-5039.8,413.9-5035,409-5029,409z"/>
			</g>
			<g>
				<path class="st4" d="M-4969.6,409h21.6c6,0,10.8,4.8,10.8,10.8v21.6c0,6-4.8,10.8-10.8,10.8h-21.6c-6,0-10.8-4.8-10.8-10.8
					v-21.6C-4980.4,413.9-4975.5,409-4969.6,409z"/>
			</g>
			<g>
				<path class="st4" d="M-4907.4,409h21.6c6,0,10.8,4.8,10.8,10.8v21.6c0,6-4.8,10.8-10.8,10.8h-21.6c-6,0-10.8-4.8-10.8-10.8
					v-21.6C-4918.2,413.9-4913.4,409-4907.4,409z"/>
			</g>
			<g>
				<path class="st4" d="M-5091.2,468.5h21.6c6,0,10.8,4.8,10.8,10.8v21.6c0,6-4.8,10.8-10.8,10.8h-21.6c-6,0-10.8-4.8-10.8-10.8
					v-21.6C-5102,473.3-5097.2,468.5-5091.2,468.5z"/>
			</g>
			<g>
				<path class="st4" d="M-5029,468.5h21.6c6,0,10.8,4.8,10.8,10.8v21.6c0,6-4.8,10.8-10.8,10.8h-21.6c-6,0-10.8-4.8-10.8-10.8
					v-21.6C-5039.8,473.3-5035,468.5-5029,468.5z"/>
			</g>
			<g>
				<path class="st4" d="M-4969.6,468.5h21.6c6,0,10.8,4.8,10.8,10.8v21.6c0,6-4.8,10.8-10.8,10.8h-21.6c-6,0-10.8-4.8-10.8-10.8
					v-21.6C-4980.4,473.3-4975.5,468.5-4969.6,468.5z"/>
			</g>
			<g>
				<path class="st4" d="M-4907.4,468.5h21.6c6,0,10.8,4.8,10.8,10.8v21.6c0,6-4.8,10.8-10.8,10.8h-21.6c-6,0-10.8-4.8-10.8-10.8
					v-21.6C-4918.2,473.3-4913.4,468.5-4907.4,468.5z"/>
			</g>
			<g>
				<path class="st4" d="M-5091.2,527.9h21.6c6,0,10.8,4.8,10.8,10.8v21.6c0,6-4.8,10.8-10.8,10.8h-21.6c-6,0-10.8-4.8-10.8-10.8
					v-21.6C-5102,532.8-5097.2,527.9-5091.2,527.9z"/>
			</g>
			<g>
				<path class="st4" d="M-5029,527.9h21.6c6,0,10.8,4.8,10.8,10.8v21.6c0,6-4.8,10.8-10.8,10.8h-21.6c-6,0-10.8-4.8-10.8-10.8
					v-21.6C-5039.8,532.8-5035,527.9-5029,527.9z"/>
			</g>
			<g>
				<path class="st4" d="M-4969.6,527.9h21.6c6,0,10.8,4.8,10.8,10.8v21.6c0,6-4.8,10.8-10.8,10.8h-21.6c-6,0-10.8-4.8-10.8-10.8
					v-21.6C-4980.4,532.8-4975.5,527.9-4969.6,527.9z"/>
			</g>
			<g>
				<path class="st4" d="M-4907.4,527.9h21.6c6,0,10.8,4.8,10.8,10.8v21.6c0,6-4.8,10.8-10.8,10.8h-21.6c-6,0-10.8-4.8-10.8-10.8
					v-21.6C-4918.2,532.8-4913.4,527.9-4907.4,527.9z"/>
			</g>
			<g>
				<path class="st4" d="M-5091.2,587.4h21.6c6,0,10.8,4.8,10.8,10.8v21.6c0,6-4.8,10.8-10.8,10.8h-21.6c-6,0-10.8-4.8-10.8-10.8
					v-21.6C-5102,592.2-5097.2,587.4-5091.2,587.4z"/>
			</g>
			<g>
				<path class="st4" d="M-5029,587.4h21.6c6,0,10.8,4.8,10.8,10.8v21.6c0,6-4.8,10.8-10.8,10.8h-21.6c-6,0-10.8-4.8-10.8-10.8
					v-21.6C-5039.8,592.2-5035,587.4-5029,587.4z"/>
			</g>
			<g>
				<path class="st4" d="M-4969.6,587.4h21.6c6,0,10.8,4.8,10.8,10.8v21.6c0,6-4.8,10.8-10.8,10.8h-21.6c-6,0-10.8-4.8-10.8-10.8
					v-21.6C-4980.4,592.2-4975.5,587.4-4969.6,587.4z"/>
			</g>
			<g>
				<path class="st4" d="M-4907.4,587.4h21.6c6,0,10.8,4.8,10.8,10.8v21.6c0,6-4.8,10.8-10.8,10.8h-21.6c-6,0-10.8-4.8-10.8-10.8
					v-21.6C-4918.2,592.2-4913.4,587.4-4907.4,587.4z"/>
			</g>
		</g>
		<g transform="translate(5372 -124)" class="st3">
			<g>
				<path class="st4" d="M-5028,409h21.6c6,0,10.8,4.8,10.8,10.8v21.6c0,6-4.8,10.8-10.8,10.8h-21.6c-6,0-10.8-4.8-10.8-10.8v-21.6
					C-5038.8,413.9-5033.9,409-5028,409z"/>
			</g>
			<g>
				<path class="st4" d="M-4965.8,409h21.6c6,0,10.8,4.8,10.8,10.8v21.6c0,6-4.8,10.8-10.8,10.8h-21.6c-6,0-10.8-4.8-10.8-10.8
					v-21.6C-4976.6,413.9-4971.8,409-4965.8,409z"/>
			</g>
			<g>
				<path class="st4" d="M-4906.3,409h21.6c6,0,10.8,4.8,10.8,10.8v21.6c0,6-4.8,10.8-10.8,10.8h-21.6c-6,0-10.8-4.8-10.8-10.8
					v-21.6C-4917.1,413.9-4912.3,409-4906.3,409z"/>
			</g>
			<g>
				<path class="st4" d="M-4844.2,409h21.6c6,0,10.8,4.8,10.8,10.8v21.6c0,6-4.8,10.8-10.8,10.8h-21.6c-6,0-10.8-4.8-10.8-10.8
					v-21.6C-4855,413.9-4850.1,409-4844.2,409z"/>
			</g>
			<g>
				<path class="st4" d="M-5028,468.5h21.6c6,0,10.8,4.8,10.8,10.8v21.6c0,6-4.8,10.8-10.8,10.8h-21.6c-6,0-10.8-4.8-10.8-10.8
					v-21.6C-5038.8,473.3-5033.9,468.5-5028,468.5z"/>
			</g>
			<g>
				<path class="st4" d="M-4965.8,468.5h21.6c6,0,10.8,4.8,10.8,10.8v21.6c0,6-4.8,10.8-10.8,10.8h-21.6c-6,0-10.8-4.8-10.8-10.8
					v-21.6C-4976.6,473.3-4971.8,468.5-4965.8,468.5z"/>
			</g>
			<g>
				<path class="st4" d="M-4906.3,468.5h21.6c6,0,10.8,4.8,10.8,10.8v21.6c0,6-4.8,10.8-10.8,10.8h-21.6c-6,0-10.8-4.8-10.8-10.8
					v-21.6C-4917.1,473.3-4912.3,468.5-4906.3,468.5z"/>
			</g>
			<g>
				<path class="st4" d="M-4844.2,468.5h21.6c6,0,10.8,4.8,10.8,10.8v21.6c0,6-4.8,10.8-10.8,10.8h-21.6c-6,0-10.8-4.8-10.8-10.8
					v-21.6C-4855,473.3-4850.1,468.5-4844.2,468.5z"/>
			</g>
			<g>
				<path class="st4" d="M-5028,527.9h21.6c6,0,10.8,4.8,10.8,10.8v21.6c0,6-4.8,10.8-10.8,10.8h-21.6c-6,0-10.8-4.8-10.8-10.8
					v-21.6C-5038.8,532.8-5033.9,527.9-5028,527.9z"/>
			</g>
			<g>
				<path class="st4" d="M-4965.8,527.9h21.6c6,0,10.8,4.8,10.8,10.8v21.6c0,6-4.8,10.8-10.8,10.8h-21.6c-6,0-10.8-4.8-10.8-10.8
					v-21.6C-4976.6,532.8-4971.8,527.9-4965.8,527.9z"/>
			</g>
			<g>
				<path class="st4" d="M-4906.3,527.9h21.6c6,0,10.8,4.8,10.8,10.8v21.6c0,6-4.8,10.8-10.8,10.8h-21.6c-6,0-10.8-4.8-10.8-10.8
					v-21.6C-4917.1,532.8-4912.3,527.9-4906.3,527.9z"/>
			</g>
			<g>
				<path class="st4" d="M-4844.2,527.9h21.6c6,0,10.8,4.8,10.8,10.8v21.6c0,6-4.8,10.8-10.8,10.8h-21.6c-6,0-10.8-4.8-10.8-10.8
					v-21.6C-4855,532.8-4850.1,527.9-4844.2,527.9z"/>
			</g>
			<g>
				<path class="st4" d="M-5028,587.4h21.6c6,0,10.8,4.8,10.8,10.8v21.6c0,6-4.8,10.8-10.8,10.8h-21.6c-6,0-10.8-4.8-10.8-10.8
					v-21.6C-5038.8,592.2-5033.9,587.4-5028,587.4z"/>
			</g>
			<g>
				<path class="st4" d="M-4965.8,587.4h21.6c6,0,10.8,4.8,10.8,10.8v21.6c0,6-4.8,10.8-10.8,10.8h-21.6c-6,0-10.8-4.8-10.8-10.8
					v-21.6C-4976.6,592.2-4971.8,587.4-4965.8,587.4z"/>
			</g>
			<g>
				<path class="st4" d="M-4906.3,587.4h21.6c6,0,10.8,4.8,10.8,10.8v21.6c0,6-4.8,10.8-10.8,10.8h-21.6c-6,0-10.8-4.8-10.8-10.8
					v-21.6C-4917.1,592.2-4912.3,587.4-4906.3,587.4z"/>
			</g>
			<g>
				<path class="st4" d="M-4844.2,587.4h21.6c6,0,10.8,4.8,10.8,10.8v21.6c0,6-4.8,10.8-10.8,10.8h-21.6c-6,0-10.8-4.8-10.8-10.8
					v-21.6C-4855,592.2-4850.1,587.4-4844.2,587.4z"/>
			</g>
		</g>
	</g>
</g>
</svg>
