<svg xmlns="http://www.w3.org/2000/svg" width="100%" height="100%" viewBox="0 0 740 340"><g transform="translate(-192.646 -401)"><text transform="translate(562.646 609)" fill="#f5f6f8" font-size="100" font-family="Muli-Bold, Muli" font-weight="700"><tspan x="-369.05" y="0">MoneyManager</tspan></text><g transform="translate(363 371)" opacity="0.31"><g transform="translate(5192 -300)" opacity="0.2"><rect width="32" height="32" rx="8" transform="translate(-5166 330)" fill="#fff"/><rect width="32" height="32" rx="8" transform="translate(-5120 330)" fill="#fff"/><rect width="32" height="32" rx="8" transform="translate(-5076 330)" fill="#fff"/><rect width="32" height="32" rx="8" transform="translate(-5030 330)" fill="#fff"/><rect width="32" height="32" rx="8" transform="translate(-5166 374)" fill="#fff"/><rect width="32" height="32" rx="8" transform="translate(-5120 374)" fill="#fff"/><rect width="32" height="32" rx="8" transform="translate(-5076 374)" fill="#fff"/><rect width="32" height="32" rx="8" transform="translate(-5030 374)" fill="#fff"/><rect width="32" height="32" rx="8" transform="translate(-5166 418)" fill="#fff"/><rect width="32" height="32" rx="8" transform="translate(-5120 418)" fill="#fff"/><rect width="32" height="32" rx="8" transform="translate(-5076 418)" fill="#fff"/><rect width="32" height="32" rx="8" transform="translate(-5030 418)" fill="#fff"/><rect width="32" height="32" rx="8" transform="translate(-5166 462)" fill="#fff"/><rect width="32" height="32" rx="8" transform="translate(-5120 462)" fill="#fff"/><rect width="32" height="32" rx="8" transform="translate(-5076 462)" fill="#fff"/><rect width="32" height="32" rx="8" transform="translate(-5030 462)" fill="#fff"/></g><g transform="translate(5372 -300)" opacity="0.2"><rect width="32" height="32" rx="8" transform="translate(-5166 330)" fill="#fff"/><rect width="32" height="32" rx="8" transform="translate(-5120 330)" fill="#fff"/><rect width="32" height="32" rx="8" transform="translate(-5076 330)" fill="#fff"/><rect width="32" height="32" rx="8" transform="translate(-5030 330)" fill="#fff"/><rect width="32" height="32" rx="8" transform="translate(-5166 374)" fill="#fff"/><rect width="32" height="32" rx="8" transform="translate(-5120 374)" fill="#fff"/><rect width="32" height="32" rx="8" transform="translate(-5076 374)" fill="#fff"/><rect width="32" height="32" rx="8" transform="translate(-5030 374)" fill="#fff"/><rect width="32" height="32" rx="8" transform="translate(-5166 418)" fill="#fff"/><rect width="32" height="32" rx="8" transform="translate(-5120 418)" fill="#fff"/><rect width="32" height="32" rx="8" transform="translate(-5076 418)" fill="#fff"/><rect width="32" height="32" rx="8" transform="translate(-5030 418)" fill="#fff"/><rect width="32" height="32" rx="8" transform="translate(-5166 462)" fill="#fff"/><rect width="32" height="32" rx="8" transform="translate(-5120 462)" fill="#fff"/><rect width="32" height="32" rx="8" transform="translate(-5076 462)" fill="#fff"/><rect width="32" height="32" rx="8" transform="translate(-5030 462)" fill="#fff"/></g><g transform="translate(5192 -124)" opacity="0.2"><rect width="32" height="32" rx="8" transform="translate(-5166 330)" fill="#fff"/><rect width="32" height="32" rx="8" transform="translate(-5120 330)" fill="#fff"/><rect width="32" height="32" rx="8" transform="translate(-5076 330)" fill="#fff"/><rect width="32" height="32" rx="8" transform="translate(-5030 330)" fill="#fff"/><rect width="32" height="32" rx="8" transform="translate(-5166 374)" fill="#fff"/><rect width="32" height="32" rx="8" transform="translate(-5120 374)" fill="#fff"/><rect width="32" height="32" rx="8" transform="translate(-5076 374)" fill="#fff"/><rect width="32" height="32" rx="8" transform="translate(-5030 374)" fill="#fff"/><rect width="32" height="32" rx="8" transform="translate(-5166 418)" fill="#fff"/><rect width="32" height="32" rx="8" transform="translate(-5120 418)" fill="#fff"/><rect width="32" height="32" rx="8" transform="translate(-5076 418)" fill="#fff"/><rect width="32" height="32" rx="8" transform="translate(-5030 418)" fill="#fff"/><rect width="32" height="32" rx="8" transform="translate(-5166 462)" fill="#fff"/><rect width="32" height="32" rx="8" transform="translate(-5120 462)" fill="#fff"/><rect width="32" height="32" rx="8" transform="translate(-5076 462)" fill="#fff"/><rect width="32" height="32" rx="8" transform="translate(-5030 462)" fill="#fff"/></g><g transform="translate(5372 -124)" opacity="0.2"><rect width="32" height="32" rx="8" transform="translate(-5166 330)" fill="#fff"/><rect width="32" height="32" rx="8" transform="translate(-5120 330)" fill="#fff"/><rect width="32" height="32" rx="8" transform="translate(-5076 330)" fill="#fff"/><rect width="32" height="32" rx="8" transform="translate(-5030 330)" fill="#fff"/><rect width="32" height="32" rx="8" transform="translate(-5166 374)" fill="#fff"/><rect width="32" height="32" rx="8" transform="translate(-5120 374)" fill="#fff"/><rect width="32" height="32" rx="8" transform="translate(-5076 374)" fill="#fff"/><rect width="32" height="32" rx="8" transform="translate(-5030 374)" fill="#fff"/><rect width="32" height="32" rx="8" transform="translate(-5166 418)" fill="#fff"/><rect width="32" height="32" rx="8" transform="translate(-5120 418)" fill="#fff"/><rect width="32" height="32" rx="8" transform="translate(-5076 418)" fill="#fff"/><rect width="32" height="32" rx="8" transform="translate(-5030 418)" fill="#fff"/><rect width="32" height="32" rx="8" transform="translate(-5166 462)" fill="#fff"/><rect width="32" height="32" rx="8" transform="translate(-5120 462)" fill="#fff"/><rect width="32" height="32" rx="8" transform="translate(-5076 462)" fill="#fff"/><rect width="32" height="32" rx="8" transform="translate(-5030 462)" fill="#fff"/></g></g></g></svg>