<svg id="ae4b9329-3109-428a-9ee8-5793b666482a" data-name="Layer 1" xmlns="http://www.w3.org/2000/svg" viewBox="0 0 99.96 33.5"><defs><style>.f58a9cf4-a3b3-4eff-ac16-7ae6a2ca04e4{fill:#808080;}</style></defs><title>rule</title><path class="f58a9cf4-a3b3-4eff-ac16-7ae6a2ca04e4" d="M-901,516h-7V505.5a1,1,0,0,0-1-1,1,1,0,0,0-1,1V516h-8V505.5a1,1,0,0,0-1-1,1,1,0,0,0-1,1V516h-8V505.5a1,1,0,0,0-1-1,1,1,0,0,0-1,1V516h-8V505.5a1,1,0,0,0-1-1,1,1,0,0,0-1,1V516h-8V495.5a1,1,0,0,0-1-1,1,1,0,0,0-1,1V516h-8V505.5a1,1,0,0,0-1-1,1,1,0,0,0-1,1V516h-8V505.5a1,1,0,0,0-1-1,1,1,0,0,0-1,1V516h-8V505.5a1,1,0,0,0-1-1,1,1,0,0,0-1,1V516h-8V505.5a1,1,0,0,0-1-1,1,1,0,0,0-1,1V516h-8V485.5a1,1,0,0,0-1-1,1,1,0,0,0-1,1V517h0a1,1,0,0,0,1,1h98a1,1,0,0,0,1-1A1,1,0,0,0-901,516Z" transform="translate(1000 -484.5)"/></svg>
