<svg id="e00296ad-e42c-4bd5-8b57-c66a4b624c9a" data-name="ae4b9329-3109-428a-9ee8-5793b666482a" xmlns="http://www.w3.org/2000/svg" viewBox="0 0 33.5 100"><defs><style>.ecabcee9-0eff-4c3f-8429-65ce6a52d0b0{fill:#808080;}</style></defs><title>rule-y</title><path class="ecabcee9-0eff-4c3f-8429-65ce6a52d0b0" d="M31.38,99V92H20.88a1,1,0,1,1,0-2h10.5V82H20.88a1,1,0,1,1,0-2h10.5V72H20.88a1,1,0,1,1,0-2h10.5V62H20.88a1,1,0,1,1,0-2h10.5V52H10.88a1,1,0,0,1,0-2h20.5V42H20.88a1,1,0,1,1,0-2h10.5V32H20.88a1,1,0,1,1,0-2h10.5V22H20.88a1,1,0,1,1,0-2h10.5V12H20.88a1,1,0,0,1,0-2h10.5V2H.88a1,1,0,0,1,0-2h31.5a1,1,0,0,1,1,1V99a1,1,0,1,1-2,0Z" transform="translate(0.12)"/></svg>
